<svg xmlns="http://www.w3.org/2000/svg" width="100" height="100" viewBox="0 0 100 100" fill="none"><g clip-path="url(#clip0_5_691)"><path d="M49.9938 0C22.3875 0 2.8853e-05 22.475 2.8853e-05 50.2C-0.01125 60.7222 3.28449 70.9818 9.42148 79.529C15.5585 88.0761 24.2263 94.4785 34.2 97.8313C36.7 98.2938 37.6125 96.7438 37.6125 95.4125C37.6125 94.2188 37.5688 91.0625 37.5438 86.875C23.6375 89.9062 20.7 80.1438 20.7 80.1438C18.4313 74.3438 15.15 72.8 15.15 72.8C10.6063 69.6875 15.4875 69.75 15.4875 69.75C20.5063 70.1062 23.1438 74.925 23.1438 74.925C27.6063 82.5938 34.85 80.3812 37.7 79.0938C38.15 75.85 39.4438 73.6375 40.875 72.3812C29.775 71.1125 18.1 66.8063 18.1 47.575C18.1 42.0938 20.05 37.6125 23.25 34.1C22.7313 32.8312 21.0188 27.725 23.7375 20.8188C23.7375 20.8188 27.9375 19.4688 37.4875 25.9625C41.5672 24.8476 45.777 24.2801 50.0063 24.275C54.2358 24.2834 58.4454 24.853 62.525 25.9688C72.0688 19.475 76.2625 20.825 76.2625 20.825C78.9875 27.7375 77.275 32.8375 76.7625 34.1062C79.9688 37.6187 81.9 42.1 81.9 47.5812C81.9 66.8625 70.2125 71.1062 59.075 72.35C60.8688 73.9 62.4688 76.9625 62.4688 81.6437C62.4688 88.3562 62.4063 93.7687 62.4063 95.4125C62.4063 96.7562 63.3063 98.3188 65.8438 97.825C75.8078 94.4643 84.4649 88.0595 90.5934 79.5144C96.7218 70.9693 100.012 60.7155 100 50.2C100 22.475 77.6125 0 49.9938 0Z" fill="url(#paint0_linear_5_691)"></path></g><defs><linearGradient id="paint0_linear_5_691" x1="50" y1="-140" x2="50" y2="210" gradientUnits="userSpaceOnUse"><stop stop-color="#FF006B"></stop><stop offset="1" stop-color="#7000FF"></stop></linearGradient><clipPath id="clip0_5_691"><rect width="100" height="100" fill="white"></rect></clipPath></defs></svg>