<svg xmlns="http://www.w3.org/2000/svg" width="100" height="100" viewBox="0 0 100 100" fill="none"><g clip-path="url(#clip0_5_721)"><path d="M64.9059 26.6069H35.0997C30.3397 26.6069 26.4717 30.4749 26.4717 35.2349V65.0365C26.4717 69.7965 30.3395 73.6699 35.0997 73.6699H64.9061C69.6607 73.6699 73.5343 69.7965 73.5343 65.0365V35.2349C73.5341 30.4747 69.6607 26.6069 64.9059 26.6069ZM50.0001 65.6295C41.4591 65.6295 34.5067 58.6769 34.5067 50.1359C34.5067 41.5949 41.4593 34.6425 50.0001 34.6425C58.5465 34.6425 65.4935 41.5949 65.4935 50.1359C65.4935 58.6769 58.5411 65.6295 50.0001 65.6295ZM65.9941 37.8461C63.9703 37.8461 62.3275 36.2039 62.3275 34.1801C62.3275 32.1611 63.9703 30.5135 65.9941 30.5135C68.0123 30.5135 69.6607 32.1611 69.6607 34.1801C69.6607 36.2039 68.0123 37.8461 65.9941 37.8461Z" fill="url(#paint0_linear_5_721)"></path><path d="M50.0002 41.1924C45.0714 41.1924 41.0566 45.2018 41.0566 50.1358C41.0566 55.07 45.0714 59.0848 50.0002 59.0848C54.9344 59.0848 58.9492 55.07 58.9492 50.1358C58.9492 45.207 54.9344 41.1924 50.0002 41.1924Z" fill="url(#paint1_linear_5_721)"></path><path d="M50 0C22.386 0 0 22.386 0 50C0 77.614 22.386 100 50 100C77.614 100 100 77.614 100 50C100 22.3862 77.614 0 50 0ZM80.0784 65.0366C80.0784 73.4088 73.273 80.2144 64.906 80.2144H35.0996C26.7328 80.2144 19.9218 73.409 19.9218 65.0366V35.235C19.9218 26.8688 26.7328 20.0578 35.0996 20.0578H64.906C73.273 20.0578 80.0784 26.8688 80.0784 35.235V65.0366Z" fill="url(#paint2_linear_5_721)"></path></g><defs><linearGradient id="paint0_linear_5_721" x1="50.003" y1="-40.682" x2="50.003" y2="127.54" gradientUnits="userSpaceOnUse"><stop stop-color="#FF006B"></stop><stop offset="1" stop-color="#7000FF"></stop></linearGradient><linearGradient id="paint1_linear_5_721" x1="50.0029" y1="15.6105" x2="50.0029" y2="79.5652" gradientUnits="userSpaceOnUse"><stop stop-color="#FF006B"></stop><stop offset="1" stop-color="#7000FF"></stop></linearGradient><linearGradient id="paint2_linear_5_721" x1="50" y1="-142.976" x2="50" y2="214.464" gradientUnits="userSpaceOnUse"><stop stop-color="#FF006B"></stop><stop offset="1" stop-color="#7000FF"></stop></linearGradient><clipPath id="clip0_5_721"><rect width="100" height="100" fill="white"></rect></clipPath></defs></svg>