<svg xmlns="http://www.w3.org/2000/svg" width="100" height="100" viewBox="0 0 100 100" fill="none"><g clip-path="url(#clip0_5_693)"><path d="M54.9814 44.2303H55.058V44.1099L54.9814 44.2303ZM54.9814 44.2303H55.058V44.1099L54.9814 44.2303ZM54.9814 44.2303H55.058V44.1099L54.9814 44.2303ZM54.9814 44.2303H55.058V44.1099L54.9814 44.2303ZM54.9814 44.2303H55.058V44.1099L54.9814 44.2303ZM54.9814 44.2303H55.058V44.1099L54.9814 44.2303ZM54.9814 44.2303H55.058V44.1099L54.9814 44.2303ZM54.9814 44.2303H55.058V44.1099L54.9814 44.2303ZM54.9814 44.2303H55.058V44.1099L54.9814 44.2303ZM54.9814 44.2303H55.058V44.1099L54.9814 44.2303ZM54.9814 44.2303H55.058V44.1099L54.9814 44.2303ZM54.9814 44.2303H55.058V44.1099L54.9814 44.2303ZM54.9814 44.2303H55.058V44.1099L54.9814 44.2303ZM54.9814 44.2303H55.058V44.1099L54.9814 44.2303ZM54.9814 44.2303H55.058V44.1099L54.9814 44.2303ZM54.9814 44.2303H55.058V44.1099L54.9814 44.2303ZM50 0C40.111 0 30.444 2.93245 22.2215 8.42652C13.999 13.9206 7.59043 21.7295 3.80604 30.8658C0.0216636 40.0021 -0.968502 50.0555 0.960758 59.7545C2.89002 69.4536 7.65206 78.3627 14.6447 85.3553C21.6373 92.3479 30.5464 97.11 40.2455 99.0392C49.9445 100.969 59.9979 99.9783 69.1342 96.194C78.2705 92.4096 86.0794 86.001 91.5735 77.7785C97.0676 69.556 100 59.889 100 50C99.9855 36.7436 94.713 24.0343 85.3393 14.6607C75.9657 5.28698 63.2564 0.0144894 50 0ZM37.4973 72.5093C37.4944 72.731 37.4043 72.9426 37.2465 73.0983C37.0887 73.2541 36.876 73.3414 36.6543 73.3414H27.0199C26.7993 73.3414 26.5876 73.2537 26.4316 73.0976C26.2755 72.9416 26.1879 72.73 26.1879 72.5093V40.1357C26.1864 40.0256 26.2069 39.9162 26.2481 39.814C26.2892 39.7118 26.3503 39.6187 26.4277 39.5403C26.5051 39.4619 26.5973 39.3996 26.699 39.3571C26.8006 39.3146 26.9097 39.2927 27.0199 39.2927H36.6543C36.765 39.2927 36.8746 39.3145 36.9769 39.3569C37.0792 39.3993 37.1721 39.4614 37.2504 39.5397C37.3286 39.6179 37.3907 39.7109 37.4331 39.8131C37.4755 39.9154 37.4973 40.025 37.4973 40.1357V72.5093ZM31.4977 34.9682C30.3003 34.9682 29.1298 34.6132 28.1341 33.9479C27.1385 33.2827 26.3625 32.3371 25.9043 31.2308C25.446 30.1245 25.3261 28.9072 25.5597 27.7328C25.7934 26.5584 26.37 25.4796 27.2167 24.6329C28.0634 23.7862 29.1422 23.2096 30.3166 22.976C31.491 22.7424 32.7083 22.8623 33.8146 23.3205C34.9209 23.7787 35.8664 24.5547 36.5317 25.5504C37.1969 26.546 37.552 27.7165 37.552 28.9139C37.5535 29.7094 37.3978 30.4973 37.0941 31.2325C36.7904 31.9677 36.3445 32.6357 35.782 33.1982C35.2195 33.7607 34.5515 34.2066 33.8163 34.5103C33.0811 34.8141 32.2932 34.9697 31.4977 34.9682ZM78.268 72.5093C78.2651 72.731 78.175 72.9426 78.0173 73.0983C77.8595 73.2541 77.6467 73.3414 77.425 73.3414H67.7907C67.6814 73.3414 67.5732 73.3198 67.4723 73.278C67.3713 73.2362 67.2796 73.1749 67.2023 73.0976C67.1251 73.0204 67.0638 72.9287 67.022 72.8277C66.9801 72.7268 66.9586 72.6186 66.9586 72.5093V55.1128C66.9586 50.5364 65.3274 47.4491 61.2328 47.4491C59.9569 47.4562 58.7144 47.8577 57.6756 48.5986C56.6368 49.3395 55.8525 50.3834 55.4303 51.5875C55.1416 52.4773 55.0156 53.4119 55.058 54.3464V72.5093C55.058 72.7329 54.9692 72.9473 54.8111 73.1054C54.653 73.2635 54.4386 73.3523 54.215 73.3523H44.5807C44.4705 73.3523 44.3614 73.3304 44.2597 73.2879C44.1581 73.2454 44.0659 73.1832 43.9884 73.1047C43.911 73.0263 43.85 72.9333 43.8088 72.8311C43.7676 72.7289 43.7472 72.6195 43.7486 72.5093C43.7486 67.8892 43.8691 45.4565 43.7486 40.1795C43.7472 40.0694 43.7676 39.96 43.8088 39.8578C43.85 39.7555 43.911 39.6625 43.9884 39.5841C44.0659 39.5057 44.1581 39.4434 44.2597 39.4009C44.3614 39.3584 44.4705 39.3365 44.5807 39.3365H54.1931C54.3042 39.3351 54.4145 39.3559 54.5175 39.3977C54.6204 39.4396 54.7139 39.5016 54.7925 39.5802C54.8711 39.6587 54.9331 39.7523 54.975 39.8552C55.0168 39.9581 55.0376 40.0684 55.0361 40.1795V44.1537C56.0602 42.376 57.5516 40.9127 59.3484 39.9226C61.1453 38.9325 63.179 38.4534 65.2288 38.5373C72.6626 38.5373 78.2461 43.3983 78.2461 53.8647L78.268 72.5093ZM55.058 44.2632V44.1428L54.9814 44.2632H55.058ZM54.9814 44.2632H55.058V44.1428L54.9814 44.2632ZM54.9814 44.2632H55.058V44.1428L54.9814 44.2632ZM54.9814 44.2632H55.058V44.1428L54.9814 44.2632ZM54.9814 44.2632H55.058V44.1428L54.9814 44.2632ZM54.9814 44.2632H55.058V44.1428L54.9814 44.2632ZM54.9814 44.2632H55.058V44.1428L54.9814 44.2632ZM54.9814 44.2632H55.058V44.1428L54.9814 44.2632ZM54.9814 44.2632H55.058V44.1428L54.9814 44.2632ZM54.9814 44.2632H55.058V44.1428L54.9814 44.2632ZM54.9814 44.2632H55.058V44.1428L54.9814 44.2632ZM54.9814 44.2632H55.058V44.1428L54.9814 44.2632ZM54.9814 44.2632H55.058V44.1428L54.9814 44.2632ZM54.9814 44.2632H55.058V44.1428L54.9814 44.2632ZM54.9814 44.2632H55.058V44.1428L54.9814 44.2632Z" fill="url(#paint0_linear_5_693)"></path></g><defs><linearGradient id="paint0_linear_5_693" x1="50" y1="-142.976" x2="50" y2="214.464" gradientUnits="userSpaceOnUse"><stop stop-color="#FF006B"></stop><stop offset="1" stop-color="#7000FF"></stop></linearGradient><clipPath id="clip0_5_693"><rect width="100" height="100" fill="white"></rect></clipPath></defs></svg>