<svg xmlns="http://www.w3.org/2000/svg" width="49" height="41" viewBox="0 0 49 41" fill="none"><path d="M43.2802 0.324951H6.04062C4.69382 0.324951 3.40218 0.859967 2.44984 1.8123C1.49751 2.76463 0.962494 4.05627 0.962494 5.40308V35.8718C0.962494 37.2186 1.49751 38.5103 2.44984 39.4626C3.40218 40.4149 4.69382 40.95 6.04062 40.95H43.2802C44.627 40.95 45.9187 40.4149 46.871 39.4626C47.8233 38.5103 48.3583 37.2186 48.3583 35.8718V5.40308C48.3583 4.05627 47.8233 2.76463 46.871 1.8123C45.9187 0.859967 44.627 0.324951 43.2802 0.324951ZM6.04062 3.71037H43.2802C43.7292 3.71037 44.1597 3.88871 44.4771 4.20615C44.7946 4.5236 44.9729 4.95414 44.9729 5.40308V10.4812H4.34791V5.40308C4.34791 4.95414 4.52625 4.5236 4.8437 4.20615C5.16114 3.88871 5.59169 3.71037 6.04062 3.71037ZM43.2802 37.5645H6.04062C5.59169 37.5645 5.16114 37.3862 4.8437 37.0688C4.52625 36.7513 4.34791 36.3208 4.34791 35.8718V13.8666H44.9729V35.8718C44.9729 36.3208 44.7946 36.7513 44.4771 37.0688C44.1597 37.3862 43.7292 37.5645 43.2802 37.5645ZM11.1187 8.78849H7.73333V5.40308H11.1187V8.78849ZM17.8896 8.78849H14.5042V5.40308H17.8896V8.78849ZM41.5875 8.78849H31.4313V5.40308H41.5875V8.78849ZM19.5823 17.252H9.42604C8.97711 17.252 8.54656 17.4304 8.22911 17.7478C7.91167 18.0653 7.73333 18.4958 7.73333 18.9447V25.7156C7.73333 26.1645 7.91167 26.5951 8.22911 26.9125C8.54656 27.2299 8.97711 27.4083 9.42604 27.4083H19.5823C20.0312 27.4083 20.4618 27.2299 20.7792 26.9125C21.0967 26.5951 21.275 26.1645 21.275 25.7156V18.9447C21.275 18.4958 21.0967 18.0653 20.7792 17.7478C20.4618 17.4304 20.0312 17.252 19.5823 17.252ZM17.8896 24.0229H11.1187V20.6375H17.8896V24.0229ZM24.6604 17.252H41.5875V20.6375H24.6604V17.252ZM24.6604 24.0229H41.5875V27.4083H24.6604V24.0229ZM24.6604 30.7937H41.5875V34.1791H24.6604V30.7937ZM7.73333 30.7937H21.275V34.1791H7.73333V30.7937Z" fill="white"></path></svg>