<svg xmlns="http://www.w3.org/2000/svg" width="100" height="100" viewBox="0 0 100 100" fill="none"><g clip-path="url(#clip0_5_695)"><path d="M50 0C22.386 0 0 22.386 0 50C0 77.614 22.386 100 50 100C77.614 100 100 77.614 100 50C100 22.386 77.614 0 50 0ZM66.764 28.385C66.764 29.13 66.16 29.734 65.416 29.734L59.637 29.736C55.653 29.736 54.924 31.289 54.924 34.347V40.71H65.013C65.371 40.71 65.715 40.852 65.968 41.106C66.221 41.359 66.363 41.702 66.363 42.06L66.359 52.936C66.359 53.681 65.755 54.285 65.01 54.285H54.924V81.728C54.924 82.473 54.32 83.077 53.575 83.077H42.322C41.577 83.077 40.973 82.473 40.973 81.728V54.284H32.348C31.603 54.284 30.999 53.68 30.999 52.935V42.06C30.999 41.315 31.603 40.71 32.348 40.71H40.973V33.204C40.973 23.314 47.201 16.924 56.839 16.924L65.418 16.938C66.162 16.939 66.765 17.543 66.765 18.287L66.764 28.385Z" fill="url(#paint0_linear_5_695)"></path></g><defs><linearGradient id="paint0_linear_5_695" x1="50" y1="-142.976" x2="50" y2="214.464" gradientUnits="userSpaceOnUse"><stop stop-color="#FF006B"></stop><stop offset="1" stop-color="#7000FF"></stop></linearGradient><clipPath id="clip0_5_695"><rect width="100" height="100" fill="white"></rect></clipPath></defs></svg>