<svg xmlns="http://www.w3.org/2000/svg" width="53" height="42" viewBox="0 0 53 42" fill="none"><path d="M50.5205 30.0018V4.14948C50.5205 3.16999 50.1313 2.23061 49.4387 1.53801C48.7461 0.845401 47.8068 0.456299 46.8273 0.456299H6.20225C5.22276 0.456299 4.28338 0.845401 3.59078 1.53801C2.89817 2.23061 2.50907 3.16999 2.50907 4.14948V30.0018C2.01932 30.0018 1.54963 30.1963 1.20333 30.5426C0.857027 30.8889 0.662476 31.3586 0.662476 31.8483C0.662476 34.2971 1.63523 36.6455 3.36675 38.377C5.09826 40.1085 7.4467 41.0813 9.89543 41.0813H43.1341C45.5828 41.0813 47.9313 40.1085 49.6628 38.377C51.3943 36.6455 52.367 34.2971 52.367 31.8483C52.367 31.3586 52.1725 30.8889 51.8262 30.5426C51.4799 30.1963 51.0102 30.0018 50.5205 30.0018ZM6.20225 4.14948H46.8273V30.0018H33.9011C33.6581 30.0003 33.4172 30.0469 33.1922 30.1388C32.9672 30.2307 32.7626 30.3661 32.59 30.5373L31.2974 31.8483H21.7321L20.4395 30.5373C20.2669 30.3661 20.0623 30.2307 19.8373 30.1388C19.6123 30.0469 19.3714 30.0003 19.1284 30.0018H6.20225V4.14948ZM43.1341 37.3881H9.89543C8.74934 37.3887 7.63128 37.0338 6.69532 36.3724C5.75937 35.7109 5.05161 34.7755 4.66958 33.6949H18.3713L19.6639 35.006C19.8365 35.1772 20.0411 35.3126 20.2661 35.4045C20.4911 35.4963 20.732 35.5429 20.975 35.5415H32.0545C32.2976 35.5429 32.5385 35.4963 32.7635 35.4045C32.9884 35.3126 33.1931 35.1772 33.3656 35.006L34.6582 33.6949H48.3599C47.9779 34.7755 47.2701 35.7109 46.3342 36.3724C45.3982 37.0338 44.2802 37.3887 43.1341 37.3881Z" fill="white"></path><path d="M21.1412 26.5856C20.8613 26.7428 20.6273 26.9702 20.4621 27.2455C20.297 27.5207 20.2064 27.8343 20.1994 28.1552C20.1994 28.6449 20.394 29.1146 20.7403 29.4609C21.0866 29.8072 21.5563 30.0018 22.046 30.0018H30.9835C31.4733 30.0018 31.943 29.8072 32.2893 29.4609C32.6356 29.1146 32.8301 28.6449 32.8301 28.1552C32.8231 27.8343 32.7325 27.5207 32.5674 27.2455C32.4022 26.9702 32.1682 26.7428 31.8883 26.5856C32.5119 26.2457 33.0102 25.7151 33.3102 25.0714L35.3415 20.6396C35.5602 20.1909 35.6739 19.6983 35.6739 19.1992C35.6739 18.7001 35.5602 18.2075 35.3415 17.7589L30.0602 7.30718C29.7907 6.74922 29.3681 6.27937 28.8417 5.95243C28.3153 5.62548 27.7068 5.45491 27.0872 5.46059H25.9423C25.3227 5.45491 24.7142 5.62548 24.1878 5.95243C23.6615 6.27937 23.2389 6.74922 22.9693 7.30718L17.7435 17.7589C17.5247 18.2075 17.4111 18.7001 17.4111 19.1992C17.4111 19.6983 17.5247 20.1909 17.7435 20.6396L19.7747 25.0714C20.0603 25.7069 20.5383 26.2365 21.1412 26.5856ZM24.6682 12.1452V15.9492C24.1784 15.9958 23.7272 16.2349 23.4138 16.6141C23.1004 16.9933 22.9505 17.4815 22.997 17.9712C23.0435 18.461 23.2827 18.9122 23.6619 19.2256C24.0411 19.539 24.5293 19.6889 25.019 19.6424H28.0105C28.5002 19.6889 28.9884 19.539 29.3676 19.2256C29.7468 18.9122 29.986 18.461 30.0325 17.9712C30.079 17.4815 29.9291 16.9933 29.6157 16.6141C29.3023 16.2349 28.8511 15.9958 28.3614 15.9492V12.1452L31.9068 19.2546L30.0602 23.3356H22.9878L21.1412 19.2546L24.6682 12.1452Z" fill="white"></path></svg>