<svg xmlns="http://www.w3.org/2000/svg" width="55" height="55" viewBox="0 0 55 55" fill="none"><path d="M27.5 0.416748C22.1433 0.4167 16.9069 2.0051 12.453 4.9811C7.99909 7.95709 4.52768 12.187 2.47778 17.1359C0.427877 22.0848 -0.108451 27.5305 0.936619 32.7842C1.98169 38.038 4.56122 42.8638 8.349 46.6515C12.1368 50.4392 16.9627 53.0186 22.2165 54.0636C27.4702 55.1085 32.9159 54.5721 37.8647 52.522C42.8136 50.472 47.0434 47.0005 50.0193 42.5465C52.9952 38.0925 54.5835 32.8561 54.5833 27.4994C54.5751 20.319 51.7191 13.4351 46.6417 8.35788C41.5644 3.28065 34.6804 0.424755 27.5 0.416748ZM3.15013 27.4994C3.14744 24.0846 3.86587 20.7076 5.25841 17.5896L16.874 49.414C12.7595 47.4183 9.29017 44.3044 6.86308 40.4287C4.43599 36.5531 3.14924 32.0723 3.15013 27.4994ZM27.5 51.8513C25.1713 51.8513 22.8546 51.5172 20.6208 50.8591L27.9276 29.6293L35.4115 50.1351C35.4603 50.2516 35.5187 50.3638 35.5861 50.4707C32.9885 51.3858 30.2541 51.8527 27.5 51.8513ZM30.8556 16.0827C32.3215 16.0057 33.6427 15.8515 33.6427 15.8515C33.9059 15.8271 34.149 15.7002 34.3195 15.4981C34.4899 15.2961 34.574 15.035 34.5536 14.7715C34.5332 14.5079 34.4099 14.2629 34.2104 14.0895C34.0109 13.916 33.7511 13.8281 33.4872 13.8446C33.4872 13.8446 29.5431 14.1542 26.9968 14.1542C24.6045 14.1542 20.584 13.8446 20.584 13.8446C20.3205 13.8289 20.0614 13.9173 19.8625 14.0908C19.6636 14.2643 19.5408 14.509 19.5206 14.7721C19.5003 15.0353 19.5842 15.2959 19.7543 15.4978C19.9243 15.6997 20.1668 15.8267 20.4296 15.8515C20.4296 15.8515 21.6714 16.0057 22.9836 16.0827L26.7773 26.4773L21.4473 42.4588L12.5807 16.0827C14.0477 16.0057 15.3674 15.8515 15.3674 15.8515C15.6304 15.8269 15.8733 15.6999 16.0435 15.4978C16.2137 15.2958 16.2976 15.0349 16.2772 14.7715C16.2568 14.5081 16.1336 14.2632 15.9342 14.0899C15.7349 13.9165 15.4754 13.8284 15.2117 13.8447C15.2117 13.8447 11.2685 14.1543 8.72217 14.1543C8.26528 14.1543 7.72638 14.143 7.15511 14.1247C9.09105 11.1784 11.6439 8.6877 14.637 6.82493C17.6301 4.96217 20.9921 3.77176 24.4905 3.33602C27.9889 2.90029 31.5402 3.22962 34.8988 4.30126C38.2574 5.37289 41.3432 7.16125 43.9427 9.54266C43.8379 9.53622 43.7354 9.52316 43.6276 9.52316C42.5131 9.55637 41.4572 10.0297 40.6908 10.8396C39.9245 11.6495 39.5101 12.73 39.5385 13.8447C39.7938 15.9325 40.6216 17.9091 41.9304 19.5557C43.2101 21.5644 43.9052 23.8897 43.9379 26.2712C43.6849 28.9677 43.0615 31.6166 42.0852 34.1429L39.6558 42.258L30.8556 16.0827ZM39.7417 48.5465L47.179 27.0432C48.3595 24.2846 48.9885 21.3217 49.0308 18.3215C49.0323 17.4841 48.9776 16.6476 48.8671 15.8175C51.9101 21.3865 52.6592 27.9233 50.9548 34.0363C49.2503 40.1492 45.2271 45.3555 39.7417 48.5465Z" fill="white"></path></svg>