<svg xmlns="http://www.w3.org/2000/svg" width="12" height="12" viewBox="0 0 12 12" fill="none"><g clip-path="url(#clip0_55_100)"><path d="M9 11.5H2C1.60218 11.5 1.22064 11.342 0.93934 11.0607C0.658035 10.7794 0.5 10.3978 0.5 10V3C0.5 2.60218 0.658035 2.22064 0.93934 1.93934C1.22064 1.65804 1.60218 1.5 2 1.5H6C6.13261 1.5 6.25979 1.55268 6.35355 1.64645C6.44732 1.74021 6.5 1.86739 6.5 2C6.5 2.13261 6.44732 2.25979 6.35355 2.35355C6.25979 2.44732 6.13261 2.5 6 2.5H2C1.86739 2.5 1.74021 2.55268 1.64645 2.64645C1.55268 2.74022 1.5 2.86739 1.5 3V10C1.5 10.1326 1.55268 10.2598 1.64645 10.3536C1.74021 10.4473 1.86739 10.5 2 10.5H9C9.13261 10.5 9.25979 10.4473 9.35355 10.3536C9.44732 10.2598 9.5 10.1326 9.5 10V6C9.5 5.86739 9.55268 5.74022 9.64645 5.64645C9.74022 5.55268 9.86739 5.5 10 5.5C10.1326 5.5 10.2598 5.55268 10.3536 5.64645C10.4473 5.74022 10.5 5.86739 10.5 6V10C10.5 10.3978 10.342 10.7794 10.0607 11.0607C9.77936 11.342 9.39783 11.5 9 11.5ZM5 7.5C4.9342 7.50038 4.86897 7.48777 4.80805 7.46289C4.74713 7.438 4.69172 7.40134 4.645 7.355C4.59814 7.30852 4.56094 7.25322 4.53555 7.19229C4.51017 7.13136 4.4971 7.06601 4.4971 7C4.4971 6.93399 4.51017 6.86864 4.53555 6.80771C4.56094 6.74678 4.59814 6.69148 4.645 6.645L9.795 1.5H9C8.86739 1.5 8.74022 1.44732 8.64645 1.35355C8.55268 1.25979 8.5 1.13261 8.5 1C8.5 0.867392 8.55268 0.740215 8.64645 0.646447C8.74022 0.552678 8.86739 0.5 9 0.5H11C11.1326 0.5 11.2598 0.552678 11.3536 0.646447C11.4473 0.740215 11.5 0.867392 11.5 1V3C11.5 3.13261 11.4473 3.25979 11.3536 3.35355C11.2598 3.44732 11.1326 3.5 11 3.5C10.8674 3.5 10.7402 3.44732 10.6464 3.35355C10.5527 3.25979 10.5 3.13261 10.5 3V2.205L5.355 7.355C5.30828 7.40134 5.25287 7.438 5.19195 7.46289C5.13103 7.48777 5.0658 7.50038 5 7.5Z" fill="black"></path></g><defs><clipPath id="clip0_55_100"><rect width="12" height="12" fill="white"></rect></clipPath></defs></svg>